<?xml version="1.0" encoding="utf-8"?>
<svg viewBox="0 0 16 16" xmlns="http://www.w3.org/2000/svg" xmlns:bx="https://boxy-svg.com">
  <defs>
    <bx:grid x="0" y="0" width="0.999" height="0.999"/>
  </defs>
  <path d="M 3.996 3.507 L 11.988 3.507 C 12.448 3.507 12.987 3.952 12.987 4.506 L 12.987 13.493 C 12.987 14.047 12.448 14.496 11.988 14.496 L 3.996 14.496 C 3.536 14.496 2.997 14.051 2.997 13.497 L 2.997 4.506 C 2.997 3.952 3.536 3.507 3.996 3.507 Z M 4.995 6.504 L 4.995 11.499 C 4.995 12.046 5.539 12.498 5.994 12.498 L 10.169 12.498 C 10.624 12.498 10.989 12.046 10.989 11.499 L 10.989 6.504 C 10.989 5.957 10.445 5.505 9.99 5.505 L 5.994 5.505 C 5.539 5.505 4.995 5.957 4.995 6.504 Z" style="fill: rgb(142, 239, 151);"/>
  <rect x="5.994" y="6.504" width="3.996" height="1.998" style="fill: rgb(142, 239, 151);" rx="0.998" ry="0.998"/>
  <path d="M 10.471 4.007 C 10.471 4.017 10.471 4.027 10.471 4.037 L 8.472 4.037 C 8.473 4.027 8.473 3.533 8.473 3.523 C 8.473 3.247 8.265 3.038 7.989 3.038 C 7.713 3.038 7.474 3.279 7.474 3.555 C 7.474 3.565 7.473 4.027 7.474 4.037 L 5.475 4.037 C 5.475 4.027 5.475 4.017 5.475 4.007 C 5.475 2.627 6.593 1.509 7.973 1.509 C 9.353 1.509 10.471 2.627 10.471 4.007 Z" style="fill: rgb(142, 239, 151);"/>
  <path d="M 1.498 7.503 L 2.997 7.503 L 2.997 9.501 L 2.461 9.501 L 2.461 11.499 L 2.997 11.499 L 2.997 13.497 L 1.498 13.497 C 0.938 13.497 0.484 13.043 0.484 12.483 L 0.484 8.517 C 0.484 7.957 0.938 7.503 1.498 7.503 Z M 14.475 7.503 C 15.035 7.503 15.489 7.957 15.489 8.517 L 15.489 12.483 C 15.489 13.043 15.035 13.497 14.475 13.497 L 12.987 13.497 L 12.987 11.499 L 13.492 11.499 L 13.492 9.501 L 12.987 9.501 L 12.987 7.503 L 14.475 7.503 Z" style="fill: rgb(142, 239, 151);"/>
</svg>