<?xml version="1.0" encoding="utf-8"?>
<svg viewBox="0 0 16 16" xmlns="http://www.w3.org/2000/svg" xmlns:bx="https://boxy-svg.com">
  <defs>
    <bx:grid x="0" y="0" width="0.999" height="0.999"/>
  </defs>
  <path d="M 3.001 1.998 L 12.983 1.998 C 13.537 1.998 13.986 2.447 13.986 3.001 L 13.986 12.983 C 13.986 13.537 13.537 13.986 12.983 13.986 L 3.001 13.986 C 2.447 13.986 1.998 13.537 1.998 12.983 L 1.998 3.001 C 1.998 2.447 2.447 1.998 3.001 1.998 Z M 3.996 4.986 L 3.996 10.998 C 3.996 11.545 4.439 11.988 4.986 11.988 L 10.998 11.988 C 11.545 11.988 11.988 11.545 11.988 10.998 L 11.988 4.986 C 11.988 4.439 11.545 3.996 10.998 3.996 L 4.986 3.996 C 4.439 3.996 3.996 4.439 3.996 4.986 Z" style="fill: rgb(142, 239, 151);"/>
  <rect x="4.995" y="6.993" width="5.994" height="1.998" style="fill: rgb(142, 239, 151);" rx="0.998" ry="0.998"/>
</svg>