<?xml version="1.0" encoding="utf-8"?>
<svg viewBox="0 0 16 16" xmlns="http://www.w3.org/2000/svg" xmlns:bx="https://boxy-svg.com">
  <defs>
    <bx:grid x="0" y="0" width="0.999" height="0.999"/>
  </defs>
  <path d="M 2.983 1.998 L 13.001 1.998 C 13.545 1.998 13.986 2.439 13.986 2.983 L 13.986 13.001 C 13.986 13.545 13.545 13.986 13.001 13.986 L 2.983 13.986 C 2.439 13.986 1.998 13.545 1.998 13.001 L 1.998 2.983 C 1.998 2.439 2.439 1.998 2.983 1.998 Z M 3.996 4.996 L 3.996 10.988 C 3.996 11.54 4.444 11.988 4.996 11.988 L 10.988 11.988 C 11.54 11.988 11.988 11.54 11.988 10.988 L 11.988 4.996 C 11.988 4.444 11.54 3.996 10.988 3.996 L 4.996 3.996 C 4.444 3.996 3.996 4.444 3.996 4.996 Z" style="fill: rgb(224, 224, 224);"/>
  <ellipse style="fill: rgb(224, 224, 224);" cx="5.509" cy="5.525" rx="0.999" ry="0.999"/>
  <ellipse style="fill: rgb(224, 224, 224);" cx="5.479" cy="7.992" rx="0.999" ry="0.999"/>
  <ellipse style="fill: rgb(224, 224, 224);" cx="5.479" cy="10.49" rx="0.999" ry="0.999"/>
  <rect x="6.993" y="6.993" width="4.497" height="1.998" style="fill: rgb(224, 224, 224);" rx="0.999" ry="0.999"/>
  <rect x="6.993" y="4.479" width="4.497" height="1.998" style="fill: rgb(224, 224, 224);" rx="0.999" ry="0.999"/>
  <rect x="6.993" y="9.493" width="4.497" height="1.998" style="fill: rgb(224, 224, 224);" rx="0.999" ry="0.999"/>
</svg>